<svg xmlns="http://www.w3.org/2000/svg" width="391.013" height="291.249" viewBox="0 0 391.013 291.249"><g transform="translate(-30 19)"><g transform="translate(90 -19)" fill="rgba(255,255,255,0)" stroke="rgba(112,112,112,0)" stroke-width="1"><rect width="278" height="63" stroke="none"/><rect x="0.5" y="0.5" width="277" height="62" fill="none"/></g><g transform="translate(180 54)" fill="#37c8ed" stroke="#454546" stroke-width="3"><path d="M15,0H82A15,15,0,0,1,97,15V32a0,0,0,0,1,0,0H0a0,0,0,0,1,0,0V15A15,15,0,0,1,15,0Z" stroke="none"/><path d="M15,1.5H82A13.5,13.5,0,0,1,95.5,15V29A1.5,1.5,0,0,1,94,30.5H3A1.5,1.5,0,0,1,1.5,29V15A13.5,13.5,0,0,1,15,1.5Z" fill="none"/></g><g transform="translate(-425 -522)"><g transform="translate(446 549)"><path d="M80.809,16.955c-1.816.905-2.2,4.082-.67,5.608,2.954,2.954,7.673-.8,5.542-4.4-.786-1.331-3.347-1.963-4.872-1.2M183.415,37.288c-12.088.754-19.75,6.669-22.708,17.531l-.666,2.446-.082,14.3-.083,14.3,1.178-.075,1.178-.076.122-14.1.123-14.1.809-2.33c2.889-8.319,8.748-13.089,18.075-14.712,2.078-.361,52.937-.352,54.936.01,8.469,1.535,13.737,5.294,16.916,12.07,2.078,4.43,2.09,4.549,2.09,19.846V85.837h2.453V72.655c0-13.977-.089-15.332-1.243-19.068-3.161-10.234-10.554-15.53-22.765-16.308-4.157-.264-46.061-.257-50.332.009M298.242,83.651c-5.151,1.011-10.626,5.547-12.056,9.99a5.382,5.382,0,0,1-.5,1.163c-1.177,1.5-1.241,8.895-.1,11.143.172.337.729,1.5,1.239,2.571,4.636,9.788,19.442,12.161,27,4.328,1.571-1.629,3.272-3.929,3.272-4.426,0-.146.085-.265.188-.265a3.979,3.979,0,0,0,.724-1.411,17.3,17.3,0,0,0-19.776-23.093M156.825,88.4l-.6.6v31.191l.6.6c.58.58.723.6,3.935.6s3.355-.022,3.935-.6l.6-.6V89l-.6-.6c-.58-.58-.723-.6-3.935-.6s-3.355.022-3.935.6m96.137,0-.6.6v31.191l.6.6c.581.58.724.6,3.936.6s3.355-.022,3.935-.6l.6-.6V89l-.6-.6c-.58-.58-.723-.6-3.935-.6s-3.355.022-3.936.6m110.123,1.872a6.713,6.713,0,0,1,2.23,6.852c-.212.827-.386,1.554-.386,1.614s.3-.05.675-.244a4.874,4.874,0,0,0-1.961-9.186l-1.709-.1,1.151,1.061m-4.2,1.35c-1.557,2.375.727,7.92,2.916,7.08,2.228-.855,1.5-5.927-1.03-7.221-1.245-.635-1.385-.624-1.886.141M33.87,121.516c-6.142,1.394-11.735,5.322-13.981,9.819a5,5,0,0,1-.773,1.23c-.652.4-1.824,3.688-2.319,6.5-1.8,10.2,2.983,19.365,12.561,24.094a21.372,21.372,0,0,0,19.479-.593c3.818-2.075,5.182-3.227,7.218-6.1.525-.741,1.1-1.5,1.277-1.683,3.364-3.5,4.228-14.494,1.609-20.474a22.579,22.579,0,0,0-25.071-12.8m118.289,43.745a4.189,4.189,0,0,0-1.27.687c-1.614,1.216-1.534.122-1.522,20.735l.012,18.712,1.092.516,1.092.516V168.463l.6-.6.6-.6,55.989.008c43.626.006,56.075.074,56.379.307.955.733.959.825.959,20.138V206.48l1.092-.542,1.091-.543V186.879c0-20.575.062-19.757-1.639-20.95l-1.052-.738-56.477-.008c-31.062-.005-56.689.031-56.949.078m54.52,28.982a8.389,8.389,0,0,0-6.377,8.332c0,10.212,14.391,11.719,16.74,1.752,1.389-5.9-4.448-11.576-10.363-10.084M150.639,208.3l-.8,1.645V234.72l.915,1.1c.5.6.92,1.1.925,1.1.021,0-.119-19.9-.175-24.878l-.061-5.381-.8,1.645m115.455,13.143c0,8.082-.065,14.9-.144,15.144s.3-.047.851-.654l1-1.1L267.8,222.4l.007-12.424-.725-1.617a7.406,7.406,0,0,0-.859-1.617c-.073,0-.133,6.613-.133,14.695M151.183,237.9c-.774.808-.775.8.675,1.59.867.47,112.916.551,113.823.082,1.346-.7,1.465-.971.742-1.726-.634-.662-.682-.673-1.134-.264s-3.576.427-56.46.427-56.014-.023-56.46-.427-.5-.4-1.186.318" fill="#37c8ed" fill-rule="evenodd"/><path d="M113.871,27.945c-1.909.867-2.935,3.485-2.3,5.858.967,3.582,5.833,4.565,8.505,1.718,3.825-4.077-.987-9.947-6.21-7.576M183.3,42.435c-8.02.549-13.823,4.266-17.045,10.92-1.659,3.428-1.942,5.047-1.942,11.144,0,4.078.072,5.319.307,5.334.169.01,1.465.221,2.882.468,4.958.865,27.294.487,33.047-.56,1.036-.189,1.065-.325-.885,4.212a99.313,99.313,0,0,0-3.714,9.756c0,.286,1.841.025,4.117-.585,7.608-2.038,14.413-9.589,17.337-19.236.475-1.567.867-2.926.871-3.019.032-.717.511,1.018.86,3.115.809,4.85.244,10.364-1.39,13.576-.571,1.122-.35,1.145,1.316.142a25.164,25.164,0,0,0,11.96-21.558V54.69h2.122l.305,1.994a24.554,24.554,0,0,0,13.123,18.162,52.155,52.155,0,0,0,6.659,2.407c.327,0,.08-17.87-.267-19.343-2.2-9.313-8.95-14.78-19.122-15.477-3.839-.263-46.689-.261-50.541,0m178.158,24.4a3.153,3.153,0,0,0-1.191,2.849c0,3.183,5.175,3.749,5.873.642a3.106,3.106,0,0,0-4.682-3.491M97.241,71.017c-.27.063-1.153.24-1.962.393-12.142,2.3-15.307,20.113-4.781,26.916a13.157,13.157,0,0,0,4.647,1.981.6.6,0,0,1,.563.306c.133.4,5.979.428,6.83.033.324-.151,1.251-.531,2.06-.845,13.139-5.1,12.126-24.747-1.461-28.342a23.357,23.357,0,0,0-5.9-.442m67.133,7.877c.058,6.276.109,7.067.462,7.135s.413-.465.538-4.534A38.23,38.23,0,0,1,166,74.678c.538-2.442.537-2.447-.771-2.68l-.923-.164.065,7.06m87.949,3.693c.092,3.659.086,3.623.64,3.411.314-.121.379-.685.379-3.315,0-3.186-.077-3.467-.94-3.468a17.507,17.507,0,0,0-.079,3.372m103.3,6.371c-5.753,2.032-5.47,11.372.4,13.327,2.547.847,5.9.242,7.279-1.313.264-.3.693-.782.953-1.074a2.56,2.56,0,0,0,.544-1.226c.039-.382.186-1.247.326-1.922,1.093-5.274-4.243-9.649-9.505-7.792m5.638,2.581a5.3,5.3,0,0,1,2.008,4.106c-.031,1.337-.85,3.19-1.411,3.19a4.2,4.2,0,0,0-1.279.491c-3.709,1.988-8.05-2.15-6.112-5.826,1.107-2.1,4.945-3.207,6.794-1.961M206.867,136.972c-1.334.472-2.3,1.565-1.742,1.973,1.247.912,5.47,1.049,7.406.24l.918-.384-.716-.761a5.538,5.538,0,0,0-5.866-1.068m79.558,17.634c-1.061,1.065-1.2,1.34-1.2,2.353a2.784,2.784,0,0,0,.306,1.382c2.517,3.125,6.571,1.367,5.564-2.411a2.971,2.971,0,0,0-4.669-1.324m-66.192,7.013v3.433l8.032-.005,8.032,0-1.226-.772c-3.673-2.31-12.794-6.086-14.7-6.086a21.891,21.891,0,0,0-.136,3.434m-27.59-2.063a69.453,69.453,0,0,0-10.056,4.715l-1.226.772,7.174,0,7.173.005v-3.188c0-2.4-.076-3.184-.306-3.17-.169.01-1.411.4-2.759.862m174-.724c-8.7,1.748-13.694,6.008-17.133,14.628-1.525,3.823-1.723,10.416-.4,13.289.188.409.627,1.513.976,2.453a21.554,21.554,0,0,0,11.374,11.573,6.233,6.233,0,0,1,1.258.575c1.409,1.713,14.213,1.735,15.451.026a10.472,10.472,0,0,1,1.717-.871c18.152-7.989,15.99-35.6-3.22-41.1a41.134,41.134,0,0,0-10.024-.57" fill="#b66e50" fill-rule="evenodd"/><path d="M181.239,35.1c-3.89.447-9.075,1.856-9.075,2.466,0,.127-.11.163-.245.08s-.245-.057-.245.058-.391.352-.868.525c-4.736,1.712-10.712,9.065-11.8,14.522-.078.392-.227.713-.33.713-.8,0-1.078,4.281-1.163,18.21-.08,12.949-.115,13.918-.506,13.918a4.368,4.368,0,0,0-2.642,2.1c-.285.682-.345,3.654-.345,17.032,0,17.556-.053,16.839,1.346,18.144l.658.614h10.5l.373,1.348c.844,3.056,3.509,9.057,4.519,10.178.243.27,1.089,1.484,1.88,2.7,2.157,3.31,7.936,8.916,11.038,10.708.388.224,1.777,1.064,3.087,1.867a39.451,39.451,0,0,0,5.089,2.526l2.707,1.067v1.155c0,1.119-.029,1.164-.92,1.448-.506.162-1.251.44-1.655.618s-1.84.73-3.189,1.225a43.239,43.239,0,0,0-9.892,5.164,8.622,8.622,0,0,1-1.955,1.319c-.177,0-.253.113-.17.248.382.618,3.416.274,4.673-.53,2.885-1.845,12.053-5.846,13.4-5.846a13.737,13.737,0,0,1,.2,3.311v3.31h1.962V154.2l.8.146c.439.08,2,.37,3.475.645a47.115,47.115,0,0,0,15.661-.3c.226-.044.33,1.236.423,5.214l.122,5.273h1.962l.068-3.5a15.125,15.125,0,0,1,.275-3.495c1.7,0,10.418,3.556,14.08,5.742,2.1,1.256,2.42,1.37,3.767,1.37,2.253,0,2.22-.073-1.1-2.469a50.926,50.926,0,0,0-9.047-4.519c-1.322-.471-2.679-1.009-3.016-1.194a18.394,18.394,0,0,0-2.759-.9c-2.9-.756-3.127-1.622-.613-2.315,12.65-3.485,24.55-15.136,28.64-28.04l.755-2.38h10.477l.658-.614c1.533-1.43,1.462-.625,1.54-17.384.088-18.7.009-19.22-3.022-19.788l-.851-.16-.005-12.787c0-12.094-.246-17.323-.847-18.294a14.223,14.223,0,0,1-.389-2.22c-.59-4.711-5.977-11.208-11.389-13.738a6.644,6.644,0,0,1-1.354-.759c-.542-.788-6.119-2.269-10.015-2.659-3.091-.31-52.011-.292-54.725.02m56.467,2.5c9.38,1.576,15.611,6.662,18.487,15.09,1.49,4.365,1.563,5.3,1.563,19.936V85.837H255.3V72.395c0-15.3-.012-15.416-2.09-19.846-3.14-6.694-8.195-10.369-16.449-11.96-2.9-.559-52.962-.559-55.87,0-9.663,1.859-15.294,6.808-18,15.817-.349,1.161-.423,3.293-.534,15.328l-.128,13.979-1.176.075-1.176.076.078-14.3.079-14.3.663-2.452c2.909-10.766,10.547-16.716,22.5-17.526,5.842-.4,51.859-.132,54.506.313m-3.862,4.833c10.172.7,16.927,6.164,19.122,15.477.347,1.473.594,19.343.267,19.343a52.155,52.155,0,0,1-6.659-2.407,24.554,24.554,0,0,1-13.123-18.162l-.305-1.994h-2.122v1.454A25.164,25.164,0,0,1,219.064,77.7c-1.666,1-1.887.98-1.316-.142,1.634-3.212,2.2-8.726,1.39-13.576-.349-2.1-.828-3.832-.86-3.115,0,.093-.4,1.452-.871,3.019-2.924,9.647-9.729,17.2-17.337,19.236-2.276.61-4.117.871-4.117.585a99.313,99.313,0,0,1,3.714-9.756c1.95-4.537,1.921-4.4.885-4.212-5.753,1.047-28.089,1.425-33.047.56-1.417-.247-2.713-.458-2.882-.468-.568-.035-.417-10.219.186-12.576a20.5,20.5,0,0,1,6.965-10.828A21.356,21.356,0,0,1,183.3,42.435c2.226-.152,17.481-.217,31-.193,9.356.016,17.924.08,19.544.191m.2,22.537a25.688,25.688,0,0,0,14.213,12.765c2.144.851,2-.335,2.1,17.2.116,20.883-.184,24.521-2.562,31.092-12.377,34.191-59.8,37.039-76,4.564-4.189-8.4-4.536-10.972-4.536-33.648,0-16.62.129-19.438,1.053-22.978l.314-1.2,11.027-.039c6.967-.024,12.36-.16,14.649-.369,4.335-.395,4.088-.57,2.968,2.1-.5,1.2-1.653,4.218-2.559,6.713l-1.647,4.537,2.119.07c7.895.258,16.668-5.649,21.141-14.233,1.2-2.3,1.322-2.341,1.1-.368-.58,5.279-2.136,7.764-6.576,10.508-2.573,1.59-2.516,1.636,1.084.857a25.992,25.992,0,0,0,19.489-17.171,14.12,14.12,0,0,0,.578-2.007,3.89,3.89,0,0,1,.272-1l.272-.69.254.613c.139.337.7,1.542,1.245,2.677m-67.726,7.347A8.053,8.053,0,0,1,166,74.678a38.23,38.23,0,0,0-.629,6.817c-.125,4.069-.188,4.6-.538,4.534s-.4-.859-.462-7.135l-.065-7.06.923.164a3.613,3.613,0,0,1,1.09.319m86.632,7.047c.571.219.579,6.415.009,6.634-.208.079-.418.1-.467.053a47.6,47.6,0,0,1-.094-6.836,2.255,2.255,0,0,1,.552.149M224.77,88.217c-1.619.617-2.971,1.144-3.005,1.17-.185.144.524,1.6.779,1.6a24.973,24.973,0,0,0,2.834-.956l2.533-.955,1.618.615c4.107,1.563,3.7,1.471,4.09.942.741-1.013.484-1.247-2.671-2.434-1.66-.625-3.067-1.129-3.127-1.12s-1.432.521-3.051,1.138M164.7,88.4l.6.6v31.191l-.6.6c-.581.582-.717.6-4.028.6-4.98,0-4.444,2.033-4.444-16.844V89l.6-.6c.58-.58.723-.6,3.935-.6s3.355.022,3.935.6m20.467.163c-2.989.854-2.969.839-2.606,1.834l.277.761,2.452-.691c3.015-.85,3.207-.853,5.776-.1,2.651.778,2.829.771,3.137-.112s.489-.771-2.7-1.7c-3.147-.916-3.114-.916-6.34.005m75.671-.163.6.6v15.551c0,18.9.553,16.844-4.537,16.844s-4.537,2.053-4.537-16.844V89l.6-.6c.581-.58.724-.6,3.936-.6s3.355.022,3.935.6m-73.619,6.945a2.456,2.456,0,0,0-.205,3.913c2.427,2.427,5.7-1.162,3.353-3.673a2.5,2.5,0,0,0-3.148-.24m39.181.079c-1.882,1.754-.665,4.885,1.773,4.558a2.517,2.517,0,0,0,1.522-4.32,2.4,2.4,0,0,0-3.295-.238m-16.524,11.523c-.572.333-.548.687.277,4.073,1.336,5.485,1.282,6.235-.625,8.576-1.653,2.029-.8,3.71.95,1.873,2.393-2.512,2.829-4.566,1.913-9.018-1.141-5.545-1.415-6.145-2.515-5.5M196.934,130.2c0,8.487,9.876,14.249,17.675,10.313,3.654-1.844,6.605-6.487,6.605-10.392v-1.367h-24.28V130.2m22.175,1.436a3.545,3.545,0,0,1-.466,1.288,10.733,10.733,0,0,0-.845,1.481,11.125,11.125,0,0,1-1.531,2.183l-.988,1.07-.946-1.106c-2.56-2.995-7.91-2.955-10.651.079l-.944,1.045-.938-1.088a13.125,13.125,0,0,1-1.492-2.193,6.429,6.429,0,0,0-.742-1.243,5.564,5.564,0,0,1-.67-2.127c0-.243,2.173-.309,10.189-.309h10.189l-.165.92m-7.881,5.3a5.5,5.5,0,0,1,1.505,1.1l.716.761-.918.384c-1.936.809-6.159.672-7.406-.24-1.653-1.208,3.788-3,6.1-2m-62.16,69.129a60.062,60.062,0,0,0-2.454,5.947c-.271.809-.64,1.8-.82,2.209-1.945,4.373-1.945,15.626,0,18.024a7.45,7.45,0,0,1,.719,1.453,13.346,13.346,0,0,0,1.527,2.54c.984,1.294,1.089,1.553.953,2.357a4.873,4.873,0,0,0,.876,3.606l.554.59h-96.5L54,243.961l.074,1.165,159.228.061,159.227.062V242.8H267.277l.625-.743a4.338,4.338,0,0,0,.819-3.457c-.119-.885-.017-1.132,1.047-2.538a18.413,18.413,0,0,0,2.836-6.383,3.9,3.9,0,0,1,.451-1.325c.4-.507.375-8.483-.032-8.89a1.3,1.3,0,0,1-.307-.809c0-1.718-3.033-11.126-4.144-12.86-.248-.387-1.106-.231-1.841.336-.452.347-.421.462.893,3.37,4.828,10.682,4.705,19.694-.353,25.9l-1.468,1.8.62.651c.556.583.583.7.268,1.126a1.987,1.987,0,0,0-.351.993,1.314,1.314,0,0,1-.295.812c-.428.428-114,.428-114.432,0a1.458,1.458,0,0,1-.3-.893,1.267,1.267,0,0,0-.429-.914c-.4-.293-.381-.366.267-1.044l.7-.729-1.46-1.8c-5.024-6.2-5.169-15.452-.4-25.778,1.559-3.381,1.521-3.152.618-3.685-.934-.552-1.171-.531-1.538.131" fill="#454546" fill-rule="evenodd"/><path d="M131.7,1.226V2.452h4.66V0H131.7V1.226m8.584,0V2.452h4.66V0h-4.66V1.226m8.584,0V2.452h4.9V0h-4.9V1.226m8.583,0V2.452h4.9V0h-4.9V1.226m8.584,0V2.452h4.66V0h-4.66V1.226m8.584,0V2.452h4.9V0h-4.9V1.226m8.583,0V2.452h4.9V0h-4.9V1.226m8.829,0V2.452h4.415V0h-4.415V1.226m8.339,0V2.452h4.9V0h-4.9V1.226m100.94,4.938c.093.724.181,1.331.2,1.35s1.015.073,2.222.122l2.194.089.319-1.092c.428-1.47.272-1.57-2.639-1.687l-2.461-.1.168,1.317m-6.125,2.188c-1.67,1.8-1.722,2.252-.343,2.956l1.032.526.369-.583a11.439,11.439,0,0,1,1.321-1.515l.953-.933-.64-.968c-.845-1.277-1.071-1.233-2.692.517m13.987.33-.636.835,1.122,1.679c1.321,1.975,1.288,1.956,2.434,1.412,1.2-.567,1.251-.845.461-2.3-1.253-2.3-2.433-2.871-3.381-1.629m-16.7,7.566c.415,3.653.647,4.038,2.084,3.463.984-.394,1.014-.438.872-1.292-.081-.486-.215-1.463-.3-2.171l-.151-1.288h-2.654l.147,1.288m18.754-.1a3.828,3.828,0,0,1-.351,1.41c-.806,1.634-.755,1.9.477,2.5,1.54.748,1.96.157,2.445-3.444l.157-1.165h-1.364c-1.336,0-1.364.014-1.364.7m-65.972,6.659v1.226h45.371V21.582H245.248v1.226m51.371-.236c-.884.923-.721,1.262,1.138,2.366,2.447,1.454,3.029,1.381,3.272-.413l.15-1.1-1.785-.8c-2.144-.962-1.9-.958-2.775-.048m10.064.133a4.468,4.468,0,0,1-1.349.593c-1.011.022-1.144,1.317-.274,2.666.233.361,2.727-.273,2.727-.693,0-.108.327-.332.727-.5,1.256-.52,1.378-.872.639-1.842-.76-.995-1.127-1.029-2.47-.226m43.041,13.469c0,.838-.023.858-.981.858h-.981v2.7h.981c.958,0,.981.021.981.859v.858h2.7V40.6c0-.771.067-.849.8-.92.777-.074.8-.108.871-1.364l.074-1.288h-.871c-.832,0-.871-.038-.871-.858v-.858h-2.7v.858M271.98,37.768v1.474l26.916-.063,26.916-.062v-2.7L298.9,36.357l-26.916-.062v1.473m55.526-1.131a4.927,4.927,0,0,0-.054,1.41l.077,1.07,2.514.07,2.514.07V36.3H330.1c-1.871,0-2.492.081-2.591.34m6.767,1.131V39.24h5.151V36.3h-5.151v1.471M85.837,47.456c0,.817-.041.858-.858.858H84.12v2.7h.859c.817,0,.858.041.858.858v.858h2.452V51.87c0-.838.024-.858.981-.858h.981v-2.7H89.27c-.957,0-.981-.021-.981-.858V46.6H85.837v.859M95.4,49.663v1.349h1.935c2.157,0,2.234-.06,2.234-1.737v-.961H95.4v1.349m5.444-.062.074,1.288h4.169l.074-1.288.074-1.287h-4.466l.075,1.287m5.592.062v1.349h44.635v-2.7H106.438v1.349M95.433,66.76,94.115,67l.151,1.1c.2,1.488.3,1.589,1.339,1.412,1.83-.312,2.534-.666,2.389-1.2a5.672,5.672,0,0,1-.137-1.172c0-.761-.17-.787-2.424-.377m3.647.868v1.237l1.043.133,1.655.209c.553.068.635-.038.838-1.089.279-1.443.323-1.4-1.79-1.58l-1.746-.147v1.237m5.883,1.055A4.67,4.67,0,0,0,104.755,70a14.329,14.329,0,0,0,2.813,1.122c.412,0,1.4-1.882,1.178-2.243a9.9,9.9,0,0,0-3.149-1.436c-.2,0-.456.5-.634,1.24m-14.982.11a6.921,6.921,0,0,1-1.262.764c-.593.208-.525.826.18,1.626.78.887,1.048.835,3.5-.676a5.639,5.639,0,0,0-.33-1.183c-.456-1.337-.854-1.438-2.086-.531m20.525,2.593c-.844,1-.808,1.239.347,2.283,1.192,1.077,1.428,1.092,2.332.148l.708-.739-1.2-1.223c-1.42-1.443-1.371-1.432-2.182-.469M84.632,73c-.951,1.08-1.265,1.805-.783,1.805a2.146,2.146,0,0,1,.8.609c.591.622,1.191.81,1.191.372a4.212,4.212,0,0,1,.858-1.194c1.036-1.147,1.043-1.235.171-2.071-.917-.879-1.068-.847-2.234.479m29.838,3.071c-1.113.6-1.112.6-.148,2.151.843,1.355.9,1.38,2.092.948,1.006-.364,1.036-.826.163-2.431-.73-1.341-.815-1.368-2.107-.668M81.207,78.218c-.759,1.765-.7,2.152.4,2.456,1.378.382,1.426.358,1.991-1,.7-1.69.677-1.814-.463-2.271-1.352-.541-1.341-.546-1.927.816m220.448.226v1.191l2,.167c2.252.188,2.292.168,2.5-1.227l.151-1.009-1.285-.154c-.707-.085-1.754-.155-2.327-.157l-1.043,0v1.191m-5.517-.549c-1.99.481-2.237.754-1.807,1.992l.335.966,2.084-.486c2.515-.586,2.279-.388,2.076-1.742-.194-1.292-.274-1.314-2.688-.73m13.143.925c-.628.756-.622,2.045.01,2.237a10.81,10.81,0,0,1,1.749.883c1.478.9,1.426.9,2.082-.334.738-1.393.764-1.338-.982-2.137-2.122-.971-2.518-1.06-2.859-.649m-19.765,1.828a18.471,18.471,0,0,0-1.678,1.329l-.7.647.562,1c.638,1.135.641,1.134,2.7-.186,1.571-1.01,1.687-1.337.933-2.616-.613-1.039-.577-1.035-1.815-.175m-172.226.7c-.3.059-.552.209-.552.335s-.18.228-.4.228c-.336,0-.376.184-.245,1.138.086.626.156,1.343.156,1.594,0,.386.195.456,1.261.456h1.262l-.143-1.536c-.151-1.611-.364-2.41-.628-2.354-.087.018-.406.081-.71.139m198.354,1.855c-.948,1.011-.984.876.665,2.48,1.632,1.587,1.75,1.616,2.806.672l.791-.707-.831-.946a12.931,12.931,0,0,0-1.759-1.619l-.929-.673-.743.793m-235.775.1a5.5,5.5,0,0,0-.163,1.716v1.554h2.452V85.009c0-1.555,0-1.564-.766-1.717-.978-.195-1.319-.193-1.523.011m203.57,2.963c-1.658,2.284-1.7,2.534-.577,3.23s1.245.662,1.945-.532a7.925,7.925,0,0,1,1.127-1.51c.716-.648.648-.9-.448-1.678-1.2-.847-1.051-.882-2.047.49M116.163,88.473c-.081.506-.216,1.263-.3,1.682-.143.71.868,1.323,2.182,1.323a10.81,10.81,0,0,0,.568-3.554c-.347-.9-2.287-.468-2.45.549m204.438.55c-.439.267-.8.656-.8.864a19.82,19.82,0,0,0,1.6,3.508,3.5,3.5,0,0,0,1.075-.222c1.261-.378,1.292-.811.207-2.935-.923-1.808-1.02-1.865-2.084-1.215m-239.976.423c-.791.12-.786.089-.284,1.8.515,1.757.6,1.823,1.923,1.433,1.243-.367,1.242-.366.823-1.789-.47-1.592-.682-1.717-2.462-1.447M280.1,92.865c-.136.518-.324,1.274-.418,1.678a3.33,3.33,0,0,1-.42,1.053c-.377.478.111.823,1.364.965l1.088.122.4-1.584c.219-.872.467-1.765.552-1.986.155-.4-.318-.689-1.73-1.043-.517-.13-.616-.035-.834.795M114.066,94.381c-.979,1.525-.958,1.764.209,2.431,1.233.7,1.08.763,1.955-.766.937-1.638.941-2.006.03-2.477-1.1-.571-1.37-.472-2.194.812M83.1,95.2l-.9.524.973,1.433c1.094,1.61,1.179,1.645,2.191.9.917-.677.912-1.076-.031-2.358-.867-1.178-1-1.208-2.23-.5m241.015.914a1.255,1.255,0,0,1-.895.269c-.944,0-1.051.338-.8,2.507l.208,1.784h2.453l-.07-2.084c-.067-2.018-.478-3.153-.9-2.476M110.423,98.791c-1.189,1.045-1.237,1.264-.532,2.406.668,1.081.884,1.048,2.258-.347,1.353-1.374,1.372-1.47.468-2.337-.871-.834-.938-.826-2.194.278m-23.337.914c-.936,1.066-.8,1.435.942,2.553,1.377.884,1.546.849,2.216-.465l.475-.932-.54-.465a13.886,13.886,0,0,0-2.222-1.561,5.261,5.261,0,0,0-.871.87M278.819,100a26.047,26.047,0,0,0,.182,3.8c.129.445.941.557,1.992.275.588-.158.762-1.679.4-3.494-.147-.734-2.469-1.259-2.573-.582m-173.607,2.027c-1.169.469-1.258.709-.753,2.037.3.8.472.806,2.276.106,1.242-.481,2.042-1.411,1.214-1.411-.114,0-.332-.276-.486-.613-.323-.71-.726-.732-2.251-.119m-12.87.878c-.524,1.255-.408,1.428,1.275,1.9,2.134.6,2.016.658,2.389-1.205.146-.73.115-.761-1.024-1.036-.646-.156-1.417-.353-1.713-.437-.45-.129-.6,0-.927.778m6.922.278c-.91.1-.919.107-.919,1.185v1.089h3.678l0-.675c-.009-1.805-.128-1.874-2.756-1.6m222.884.834a36.71,36.71,0,0,0-.873,3.611c0,.319,1.8.888,2.252.713.785-.3,1.457-4.356.722-4.356a7.986,7.986,0,0,1-1.223-.152c-.533-.107-.8-.052-.878.184m-41.155,3.442c-.866.316-.858.791.046,2.786.648,1.429,1.732,2.288,1.732,1.372,0-.12.22-.275.49-.345.8-.209.8-.728-.014-2.458-.8-1.714-.979-1.821-2.254-1.355m37.768,4.58c-1.091,1.695-1.127,2.048-.273,2.719,1.067.84,1.507.54,3-2.045l.555-.96-.69-.564c-1.1-.9-1.56-.749-2.591.85m-34.089,2.12c-.914.8-.89.871.839,2.436,1.7,1.542,1.665,1.526,2.338.94,1.012-.881.939-1.427-.369-2.757-1.354-1.375-1.83-1.48-2.808-.619m28.826,3.025c-.7.5-1.283,1.037-1.288,1.2-.017.559.816,2.032,1.149,2.032.786,0,3.8-2.571,3.379-2.883a2.568,2.568,0,0,1-.515-.673c-.426-.774-1.324-.667-2.725.323m-22.891,1.785c-.683,1.339-.592,1.475,1.617,2.4,2.145.9,2.4.828,2.693-.75l.164-.9-1.828-.879c-2.233-1.074-2.029-1.084-2.646.126m16.137,1.376c-1.5.395-1.56.486-1.252,2.024.177.885.614.9,3.089.1,1.418-.458,1.523-.609,1.166-1.691-.326-.988-.693-1.041-3-.435m-9.125,1.44c-.214,1.427-.351,1.341,2.42,1.507l2.352.14v-1.147c0-1.327.071-1.287-2.608-1.483l-1.995-.147-.169,1.13m-282.1,2.4c-1.415,1.812-1.533,2.411-.6,3.072,1.024.729,1.077.707,2.472-1.068,1.46-1.858,1.435-1.747.59-2.629-.924-.964-1.289-.872-2.458.625M384.3,128.633c0,.82-.039.858-.871.858h-.871l.074,1.288c.072,1.255.094,1.289.871,1.364.73.07.8.148.8.92v.843H387v-.859c0-.812.044-.858.832-.858.943,0,1.13-.288,1.13-1.737,0-.958,0-.961-.981-.961-.958,0-.981-.02-.981-.858v-.859h-2.7v.859M11.783,129.92a26.6,26.6,0,0,0-1.237,3.509c0,.237,1.392.723,2.06.719.414,0,.646-.354,1.189-1.8.835-2.227.859-2.015-.3-2.6-1.248-.637-1.341-.627-1.715.179m316.359.552V131.7h41.2v-2.452h-41.2v1.226m42.346-1.063a3.082,3.082,0,0,0-.163,1.227V131.7h3.924v-2.452h-1.8a7.009,7.009,0,0,0-1.962.163m5.232,1.053V131.7h3.951l-.074-1.165-.075-1.165-1.9-.071-1.9-.072v1.237m-176.469.807c.052.169.161.61.243.981l.147.675h18.818l.148-.552c.406-1.515,1.124-1.41-9.648-1.41-7.728,0-9.782.064-9.708.306M102.023,134.4v1.226h6.132V133.17h-6.132V134.4m34.054.41c-.322.085-.378.317-.276,1.136.168,1.347.106,1.311,2.53,1.486l2.1.151.3-1.134a4.486,4.486,0,0,0,.228-1.209,13.514,13.514,0,0,0-4.881-.43m-5.764,2.594c-2.277,2.433-2.445,3.059-1.03,3.855l1.019.572.5-.711a13.084,13.084,0,0,1,1.311-1.492c.97-.937.971-.95.186-2.1-.762-1.121-1.037-1.137-1.99-.119M9.476,137.216a17.047,17.047,0,0,0-.317,2.488L9,141.783l1.2-.076,1.2-.076.211-2.046c.233-2.261.183-2.381-1.1-2.616-.7-.128-.919-.076-1.043.247m134.606.7c-1.235,1.689-1.214,1.478-.276,2.706a8.143,8.143,0,0,1,1.016,1.63c.221.7,2.817.18,2.817-.559a7.332,7.332,0,0,0-1.743-2.975,2.865,2.865,0,0,1-.709-.92c0-.34-.835-.252-1.1.118m-135.008,7.8c0,1.467.531,3.882.854,3.882.955,0,2.133-.773,2-1.31-.076-.3-.212-1.179-.3-1.949l-.165-1.4H10.267c-1.176,0-1.193.011-1.193.777m117.719.219a10.094,10.094,0,0,0,.991,3.748,5.261,5.261,0,0,0,2.439-.868c0-.041-.163-.516-.357-1.056a7.027,7.027,0,0,1-.364-1.9l-.011-.919h-2.7v1m18.639.36a5.527,5.527,0,0,1-.375,1.766c-.5,1.185-.375,1.4.989,1.783,1.468.411,1.8-.077,2.24-3.275l.156-1.14h-3.01v.866M131.1,152.53c-1.059,1.1.022,2.236,2.86,2.992,1.368.365,1.373.361,1.567-1.052l.151-1.1-1.192-.445a7.109,7.109,0,0,1-1.58-.78c-.585-.506-1.045-.407-1.806.387m10.893-.3a9.114,9.114,0,0,1-1.833.842c-.674.228-1.222.506-1.218.616s.1.68.21,1.266l.2,1.065.894-.168A10.841,10.841,0,0,0,144,154.094c.206-.249.109-.562-.407-1.306-.776-1.121-.786-1.125-1.6-.554m-130.4.228c-1.255.444-1.252.4-.2,2.674.935,2.023,1.316,2.221,2.43,1.263.8-.687.8-.636-.023-2.672-.736-1.819-.7-1.8-2.207-1.265m3.682,6.781c-1.045.706-1.012.946.365,2.649,1.335,1.652,1.45,1.689,2.345.756.865-.9.851-.985-.475-2.6-1.287-1.564-1.178-1.525-2.235-.81m5.147,5.8c-.786,1-.736,1.1,1.1,2.334,1.971,1.322,2.137,1.341,2.764.312.679-1.114.657-1.164-1.074-2.33-1.811-1.22-2.056-1.248-2.791-.316m131.937,2.843-.545.382v68.566l.516.467c.514.465,109.227.915,111.76.462,1.938-.346,1.764,3.112,1.764-35.145V168.571l-.567-.533-.568-.533H208.806c-50.2,0-55.963.039-56.452.381M27.083,169.11c-.25.654-.335,1.2-.2,1.317a18.051,18.051,0,0,0,3.679,1.247,4.784,4.784,0,0,0,.8-2.529c-.27-.15-3.407-1.15-3.609-1.15-.132,0-.432.5-.666,1.115m369.059-.077c-.436.306-.8.649-.8.763a24.558,24.558,0,0,0,1.39,3.84c1.192,0,2.265-.6,2.119-1.194-.9-3.629-1.435-4.306-2.712-3.409M34.505,171.24c-.179,1.334-.044,1.406,2.62,1.411l2.177,0-.163-1.019c-.231-1.446-.209-1.434-2.457-1.434H34.645l-.14,1.038m363.561,5.519-.83.1.156,1.49c.085.819.156,1.749.156,2.066,0,.529.1.577,1.226.577,1.4,0,1.378.053,1.068-2.907-.123-1.181-.243-1.5-.551-1.468-.217.022-.768.085-1.225.141m-295.634,4.153a3.592,3.592,0,0,0-.163,1.348v1.186h4.169v-2.7h-1.921a7.809,7.809,0,0,0-2.085.164m5.723,1.185v1.349h3.923v-2.7h-3.923V182.1m5.4,0v1.349h24.28v-2.7H113.55V182.1m283.416,3.566c-.6,2.652-.544,2.8,1.241,3.3.636.178.971-.712,1.222-3.246.148-1.5.137-1.533-.436-1.536a5.28,5.28,0,0,1-1.108-.143c-.472-.127-.558.026-.919,1.628m-114.2,5.385v1.23l19.681-.063,19.682-.063v-2.207l-19.682-.063-19.681-.063v1.229m40.712,0v1.227H327.9v-2.453h-4.414v1.226m5.64,0v1.227h4.415v-2.453h-4.415v1.226m65.233,2.146c-.465.911-.88,1.725-.922,1.809-.1.2,1.591,1.2,2.038,1.2a13.136,13.136,0,0,0,2.076-3.8,3.887,3.887,0,0,0-1.9-.859c-.308,0-.715.52-1.294,1.655m-183.145,1.082c6.856,1.487,8.278,11.419,2.228,15.559-8.511,5.825-18.156-6.068-10.848-13.375,2.335-2.336,4.912-2.989,8.62-2.184m178.779,4.871-1.3,1.465.691.976c.38.537.812.979.961.982a13.944,13.944,0,0,0,3.04-3.6,4.791,4.791,0,0,0-2.013-1.294c-.039,0-.658.665-1.375,1.471m-5.672,4.555c-1.849,1.152-1.839,1.133-1.245,2.3.606,1.187.571,1.19,3.009-.277,1.756-1.058,2-1.481,1.1-1.949a2.2,2.2,0,0,1-.748-.622c-.281-.474-.615-.388-2.12.55m-23.9,3.45c-.5,1.464-.414,1.548,2.194,2.162,2.106.5,2.214.448,2.438-1.1l.159-1.1-1.672-.423c-.92-.233-1.907-.491-2.194-.573-.449-.128-.578.016-.925,1.036m16.775-.477c-1.669.444-1.555.291-1.347,1.8l.174,1.269.893-.143c3.226-.52,3.861-1.053,3.229-2.715-.279-.733-.831-.772-2.949-.208m-9.32,2.277v1.226h4.722l-.154-.767a8.051,8.051,0,0,1-.153-1.226c0-.415-.213-.46-2.207-.46h-2.208v1.227M151.593,240.11l.4.6,56.719.062c41.723.046,56.808-.011,57.052-.214.508-.422.431-1.052-.1-.794-.6.3-113.356.273-113.979-.023-.471-.223-.475-.209-.093.368" fill="#fff" fill-rule="evenodd"/><path d="M232.245,63.586c-2.543,9.883-9.679,16.574-20.537,19.256-2.75.679-5.016.918-3.615.381a33.954,33.954,0,0,0,6.809-5.111,15.143,15.143,0,0,0,2.242-6.193c.2-1.539.074-1.607-.579-.327-3.294,6.456-9.425,11.811-15.636,13.656-2.4.712-8.164,1.158-8.164.631a103.9,103.9,0,0,1,3.721-9.943,26.482,26.482,0,0,0,1.346-3.507,22.407,22.407,0,0,0-3.091.153,207.282,207.282,0,0,1-21.126.506c-2.214-.135-4.2-.246-4.413-.247-.45,0-1.086,2.915-1.391,6.374-.461,5.236.06,38.708.643,41.325,4.378,19.626,21.965,33.493,41.446,32.679,14.325-.6,29.814-15.974,33.421-33.177.944-4.5.985-41.71.05-44.149a15.22,15.22,0,0,0-2.282-1.93,25.215,25.215,0,0,1-7.521-9.36l-1.057-2.054-.266,1.037m-1.352,24.368c3.53,1.36,3.446,1.294,3.082,2.394-.4,1.228-.4,1.228-3.181.143-3.042-1.186-2.636-1.186-5.814.008a25.9,25.9,0,0,1-2.675.919c-.032-.034-.238-.5-.458-1.026-.474-1.143-.545-1.075,2.187-2.078,1.079-.4,2.349-.89,2.821-1.1a8.85,8.85,0,0,1,.972-.388c.063-.006,1.443.5,3.066,1.126m-39.276.442c1.594.454,2.943.871,3,.925a7.029,7.029,0,0,1-.5,2.112,24.1,24.1,0,0,1-2.883-.7l-2.81-.773-2.79.752c-3.067.827-3.225.8-3.525-.635-.156-.744-.117-.8.772-1.042.515-.143,1.875-.528,3.021-.855,2.628-.751,2.3-.763,5.719.212m-1.559,6.671a2.549,2.549,0,0,1,.984,3.722,2.752,2.752,0,1,1-.984-3.722m39.246-.035a2.7,2.7,0,0,1-1.392,5.1,2.646,2.646,0,0,1-2.774-2.773,2.8,2.8,0,0,1,4.166-2.328m-17.939,12.08c1.059,2.038,2.152,9.289,1.635,10.848-.469,1.41-2.591,4.313-3.325,4.545-1.438.457-1.838-1.241-.611-2.6,2.128-2.356,2.211-3.257.849-9.184-.609-2.649-.7-3.392-.464-3.679a1.376,1.376,0,0,1,1.916.069M221.459,129.7a12.864,12.864,0,0,1-8.645,11.859A12.49,12.49,0,0,1,196.693,129.8l0-1.288h24.77V129.7m-23.544,30.2v5.15h7.113V158.77l-1.756-.844a31.555,31.555,0,0,1-3.453-2.009,21.237,21.237,0,0,0-1.8-1.165c-.056,0-.1,2.317-.1,5.15m-49.271,53.8c-2.3,7.193-2.425,12.945-.374,17.874,1.345,3.233,1.331,3.326,1.331-8.959,0-6.166-.05-11.211-.111-11.211a14.635,14.635,0,0,0-.846,2.3" fill="#cd9782" fill-rule="evenodd"/><path d="M229.43,70.141c-.209.4-.325.736-.258.736a2.118,2.118,0,0,0,.5-.736c.209-.4.325-.736.258-.736a2.1,2.1,0,0,0-.5.736m9.2,1.839a5.374,5.374,0,0,0,.954.859c.068,0-.252-.387-.709-.859a5.335,5.335,0,0,0-.955-.858c-.067,0,.252.386.71.858m-51.686,1.034a5.335,5.335,0,0,0,1.348,0c.371-.056.068-.1-.674-.1s-1.045.046-.674.1m-9.933.251a22.57,22.57,0,0,0,2.575,0c.708-.05.129-.09-1.287-.09s-2,.04-1.288.09M225.249,75.6l-.969,1.042,1.042-.969c.969-.9,1.155-1.116.969-1.116a11.011,11.011,0,0,0-1.042,1.043m17.894.006c1.132,1.761,1.282,39.176.178,44.438A42.906,42.906,0,0,1,215.7,152.048q-4.556,1.623,1.1.486a41.247,41.247,0,0,0,32.376-31.915c.9-4.289,1.03-7.675.943-25-.088-17.759-.044-17.172-1.329-17.5a27.865,27.865,0,0,1-5.07-2.441c-.88-.6-.9-.6-.571-.083m-32,3.305-.846.919.92-.845c.856-.787,1.033-.994.845-.994a8.291,8.291,0,0,0-.919.92M167.561,80.2c0,.472.051.665.113.429a2.034,2.034,0,0,0,0-.858c-.062-.236-.113-.043-.113.429m.059,18.271c0,9.038.031,12.7.068,8.137s.038-11.957,0-16.432-.068-.742-.068,8.3m59.48-8.94c-.269.182-.17.2.368.084.9-.2,1.1-.342.47-.337a1.78,1.78,0,0,0-.838.253m2.869,6.113a5.105,5.105,0,0,1,.536.993c.161.4.248.469.258.192a1.835,1.835,0,0,0-.536-.993c-.3-.317-.42-.4-.258-.192m-38.618,1.724c0,.472.05.665.112.429a2.039,2.039,0,0,0,0-.859c-.062-.236-.112-.043-.112.43m21.827,19.129c0,.472.05.665.112.429a2,2,0,0,0,0-.858c-.062-.236-.112-.043-.112.429m1.169,24.28c-.472.258-.77.474-.662.48a4.368,4.368,0,0,0,1.643-.855c0-.16-.014-.155-.981.375m-33.231,1.962a6.9,6.9,0,0,0,1.08.981,4.217,4.217,0,0,0-.835-.981,6.843,6.843,0,0,0-1.08-.981,4.241,4.241,0,0,0,.835.981m18.029,12.75a34.508,34.508,0,0,0,3.613,2.145l2.267,1.168v3.127l0,3.127h12.753v-5.167c0-4.807-.03-5.157-.43-5.035-3.013.925-11.814,1.028-16.3.192-1.579-.3-2.957-.536-3.063-.536s.414.441,1.154.979m68.911,67.078c0,6.272.054,11.4.12,11.4a6.8,6.8,0,0,0,.824-1.41c2.031-4.063,2.448-8.354,1.367-14.071-.377-2-1.978-7.327-2.2-7.327-.061,0-.111,5.132-.111,11.4m-121.341-.613c0,.472.051.665.113.429a2.034,2.034,0,0,0,0-.858c-.062-.237-.113-.043-.113.429M146.72,226c0,.54.053.732.112.427a2.68,2.68,0,0,0-.005-.981c-.061-.235-.109.015-.107.554m1.182,5.151a2.71,2.71,0,0,0,.351.858c.192.337.35.5.35.368a2.729,2.729,0,0,0-.35-.859c-.193-.337-.351-.5-.351-.367" fill="#8f604d" fill-rule="evenodd"/><path d="M232.234,62.458a2.437,2.437,0,0,0-.178,1.022c.039.2.194-.093.344-.655.307-1.151.212-1.361-.166-.367m-.79,2.831a4.7,4.7,0,0,0-.315,1.36,3.38,3.38,0,0,0,.508-1.168,4.207,4.207,0,0,0,.316-1.36c-.057-.056-.285.469-.509,1.168m-1.228,3.02a4.794,4.794,0,0,0-.542,1.342,9.532,9.532,0,0,0,1.292-2.593,4.2,4.2,0,0,0-.75,1.251m-12.99,1.525a2.23,2.23,0,0,0,.079.92c.169.724.173.72.2-.184.028-.873-.075-1.141-.28-.736m21.4,1.9a12.318,12.318,0,0,0,1.454,1.349,8.64,8.64,0,0,0-1.209-1.349,12.281,12.281,0,0,0-1.455-1.349,8.753,8.753,0,0,0,1.21,1.349m-42.609.544a4.4,4.4,0,0,0,1.226,0c.3-.059,0-.105-.677-.1s-.922.05-.549.106m-3.064.247a6.5,6.5,0,0,0,1.471,0c.369-.055.008-.1-.8-.1s-1.111.047-.67.1m-23.181.243a5.437,5.437,0,0,0,1.349,0c.371-.056.067-.1-.674-.1s-1.046.046-.675.1m19.259,0a12.345,12.345,0,0,0,1.962,0c.5-.053.03-.1-1.049-.094s-1.49.044-.913.1m-13.113.249c2,.042,5.2.041,7.113,0s.279-.075-3.633-.075-5.477.034-3.48.075m49.219,2.392a17.265,17.265,0,0,0-1.705,1.839,21.868,21.868,0,0,0,1.95-1.839,17.208,17.208,0,0,0,1.705-1.84,21.974,21.974,0,0,0-1.95,1.84m-57.331,1.349c0,.472.05.665.112.429a2,2,0,0,0,0-.858c-.062-.237-.112-.043-.112.429m54.265,1.258c-1.45,1.086-1.642,1.382-.319.492a7.767,7.767,0,0,0,1.3-1.018c.216-.349.11-.292-.983.526m25.384-.421a6.412,6.412,0,0,0,1.226.48c.337.084.171-.059-.368-.319-1.11-.533-1.8-.662-.858-.161m-36.795,1.554-1.587,1.655,1.656-1.587c.91-.873,1.655-1.618,1.655-1.655,0-.181-.25.049-1.724,1.587m-43.1-.552c0,.54.053.731.112.426a2.681,2.681,0,0,0,0-.981c-.061-.234-.109.016-.107.555m46.4.675-1.217,1.287,1.287-1.217c1.2-1.131,1.4-1.358,1.217-1.358a17.112,17.112,0,0,0-1.287,1.288m36.019,1.287c0,.944.045,1.3.1.792a9.188,9.188,0,0,0,0-1.717c-.054-.435-.1-.019-.1.925M167.375,97.118c0,9.51.031,13.4.068,8.645s.037-12.535,0-17.29-.068-.864-.068,8.645m37.162-13.611a5.668,5.668,0,0,0-1.4.847,15.419,15.419,0,0,0,3.12-1.586c0-.165.057-.19-1.717.739m45.732,14.224c0,8.363.03,11.82.068,7.682s.038-10.98,0-15.205-.068-.84-.068,7.523m-57.23-12.606a8.635,8.635,0,0,0-.274.871,15.221,15.221,0,0,0,2.269.036l2.268-.051-2.136-.081-2.136-.082.242-.638a1.327,1.327,0,0,0,.142-.738c-.056-.056-.225.252-.375.683m7.574-.131c-1.012.312-1.658.574-1.436.583a15.433,15.433,0,0,0,3.643-1.1c0-.156-.127-.127-2.207.516m-6.47,5.352a.937.937,0,0,1-.7.713c-.491.1-.481.11.1.14.6.031,1.24-.98.865-1.356-.058-.058-.174.168-.258.5m169.127.32a6.973,6.973,0,0,1,1.891,3.693c.2,1.062.15,1.658-.326,3.863-.117.547-.058.484.234-.245a7.1,7.1,0,0,0-1.774-7.483l-.92-.856.895,1.028M184.3,90.742c-.309.133-.354.211-.123.211a2.7,2.7,0,0,0,.859-.211c.309-.133.354-.211.122-.211a2.7,2.7,0,0,0-.858.211m7.358,0a2.694,2.694,0,0,0,.858.211c.232,0,.186-.078-.123-.211a2.694,2.694,0,0,0-.858-.211c-.232,0-.187.078.123.211m31.023.245c-.505.162-.526.2-.122.217a1.709,1.709,0,0,0,.858-.217c.43-.278.132-.278-.736,0m137.953.409a8.934,8.934,0,0,1,1.222.787c.459.376.467.374.14-.047A4.057,4.057,0,0,0,360.1,91c-.108,0,.135.185.54.4M225.66,95.977a2.966,2.966,0,0,0-.4,1.165l-.123.835.266-.859a4.566,4.566,0,0,1,.52-1.165c.139-.168.2-.306.13-.306s-.245.148-.4.33m-39.517,2.529a2.172,2.172,0,0,0,.675.838l.674.6-.613-.736c-.337-.405-.64-.782-.674-.838s-.062.007-.062.141M212.18,111.1a12.283,12.283,0,0,0,.313,1.84c.183.809.333,1.2.334.858,0-.688-.619-3.273-.647-2.7m37.8,4.292c0,.81.047,1.111.1.67a6.559,6.559,0,0,0,0-1.471c-.056-.369-.1-.008-.1.8m-37.028.736c0,.944.045,1.3.1.792a9.186,9.186,0,0,0,0-1.717c-.055-.435-.1-.019-.1.925M167.578,116c0,.742.046,1.046.1.675a5.437,5.437,0,0,0,0-1.349c-.056-.371-.1-.067-.1.674m43.4.123c0,.54.053.731.112.426a2.681,2.681,0,0,0-.005-.981c-.061-.234-.109.016-.107.555m38.745,1.594c0,.472.05.665.112.429a2,2,0,0,0,0-.858c-.062-.236-.112-.043-.112.429m-81.913.491c0,.472.05.665.112.429a2,2,0,0,0,0-.858c-.062-.237-.112-.043-.112.429m44.168,1.134c-.427.728-.677,1.261-.554,1.185a8.328,8.328,0,0,0,1.423-2.424,4.709,4.709,0,0,0-.869,1.239m-43.926.337a4.7,4.7,0,0,0,.191,1.226c.264.825.264-.066,0-1.1-.168-.661-.187-.674-.191-.123m42.387,1.826a2.53,2.53,0,0,1-1.208.7l-.644.1.628.037a1.831,1.831,0,0,0,1.334-.7c.387-.4.648-.736.579-.736a2.764,2.764,0,0,0-.689.6m-13.647,7.343a3.963,3.963,0,0,0-.035,1.29c.093.9.1.887.139-.22l.041-1.165h24.249l.1.675c.094.636.1.633.076-.062l-.022-.735-12.208-.064c-10.3-.054-12.229-.01-12.34.281m48.754,1.995a3.2,3.2,0,0,0-.419,1.1,6.238,6.238,0,0,0,1.046-2.1c-.051-.052-.334.4-.627,1m-46.618.424c.021.415.056.446.14.123.146-.557,19.8-.677,20.025-.123.073.183.131.134.143-.122.018-.4-.622-.43-10.159-.43H198.9l.029.552m19.817.92-.1.613-9.687.123c-5.328.067-9.577.177-9.442.245a4.356,4.356,0,0,1,.8,1.226,13.125,13.125,0,0,0,1.492,2.193l.938,1.088.944-1.045c2.741-3.034,8.091-3.074,10.651-.079l.946,1.106.988-1.07a11.125,11.125,0,0,0,1.531-2.183,9.519,9.519,0,0,1,.9-1.524,1.131,1.131,0,0,0,.251-.859c-.08-.347-.126-.31-.205.166m25.167,1.533c-.5.843-.746,1.367-.55,1.165a10.927,10.927,0,0,0,1.573-2.7,9.058,9.058,0,0,0-1.023,1.533m-24.789,2.7c-.378.574-.53.913-.339.755.368-.3,1.307-1.8,1.131-1.8a5.37,5.37,0,0,0-.792,1.042m-18.875,1.9a6.778,6.778,0,0,0,1.081.981,4.3,4.3,0,0,0-.836-.981,6.852,6.852,0,0,0-1.08-.981,4.25,4.25,0,0,0,.835.981m-20.6,3.188a25.082,25.082,0,0,0,2.073,1.962,19.583,19.583,0,0,0-1.827-1.962,25.084,25.084,0,0,0-2.073-1.962,19.584,19.584,0,0,0,1.827,1.962M202.435,140a8.135,8.135,0,0,0,3.083,1.5c.2,0-.269-.265-1.048-.586a10.6,10.6,0,0,1-1.826-.914c-.343-.278-.376-.278-.209,0m35.449,1.446L236.3,143.1l1.655-1.587c.911-.873,1.656-1.617,1.656-1.655,0-.181-.25.049-1.724,1.587m-26.112.061c-.309.133-.355.211-.123.211a2.7,2.7,0,0,0,.859-.211c.309-.133.354-.21.122-.21a2.7,2.7,0,0,0-.858.21m-3.863.425a13.952,13.952,0,0,0,2.085,0c.573-.052.1-.094-1.042-.094s-1.616.042-1.043.094m-21.824,4.777a7.545,7.545,0,0,0,2.266,1.35,7.542,7.542,0,0,0-1.271-.892c-.7-.435-1.147-.64-.995-.458m43.5.931c-2.575,1.5-2.918,1.843-.627.62,1.552-.827,3.126-1.854,2.8-1.826-.068.005-1.046.548-2.173,1.206m-40.991.6a2.118,2.118,0,0,0,.736.5c.4.209.735.325.735.258a2.12,2.12,0,0,0-.735-.5c-.4-.209-.736-.325-.736-.258m26.855,4.55c-.661.168-.674.187-.123.191a4.7,4.7,0,0,0,1.226-.191c.825-.264-.066-.264-1.1,0m-12.079.414a2.006,2.006,0,0,0,.859,0c.236-.062.042-.112-.43-.112s-.665.05-.429.112m9.69,0a2.659,2.659,0,0,0,.981,0c.235-.061-.015-.109-.554-.106s-.732.053-.427.111m-6.256.254c1.045.046,2.756.046,3.8,0s.19-.083-1.9-.083-2.946.038-1.9.083m-9.079,6.379.056,5.579.071-5.478.071-5.477,1.037.135c.765.1.877.079.425-.078a5.012,5.012,0,0,0-1.165-.236l-.552-.025.057,5.58m20,.073a41.732,41.732,0,0,0,.246,5.384,82.67,82.67,0,0,0-.142-10.593,37.488,37.488,0,0,0-.1,5.209m-10.422-4.244c.916.047,2.351.046,3.189,0s.087-.087-1.666-.086-2.439.039-1.523.087m-22.7,9.566c2.057.041,5.423.041,7.48,0s.374-.075-3.74-.075-5.8.034-3.74.075m39.485,0c2.326.04,6.134.04,8.461,0s.423-.074-4.231-.074-6.557.033-4.23.074M267.829,210.3a2.7,2.7,0,0,0,.35.859c.193.337.351.5.351.368a2.713,2.713,0,0,0-.351-.859c-.193-.337-.35-.5-.35-.368m-118.81,1.344c-.553,1.383-.468,1.589.114.276a3.318,3.318,0,0,0,.382-1.175c-.054-.053-.277.351-.5.9m119.67.8a11.809,11.809,0,0,0,1.066,2.746,14.648,14.648,0,0,0-1.125-3.3c-.064,0-.037.248.059.551m1.12,3.25a11.54,11.54,0,0,0,.322,1.594c.185.742.337,1.073.338.736,0-.6-.629-2.823-.66-2.33m1.012,5.518c0,.607.048.855.106.552a3.466,3.466,0,0,0,0-1.1c-.058-.3-.106-.055-.106.552m.252,2.7c0,.742.046,1.045.1.674a5.437,5.437,0,0,0,0-1.349c-.056-.371-.1-.067-.1.675m-124.6-.123c0,.54.053.731.112.426a2.7,2.7,0,0,0-.005-.981c-.062-.234-.11.016-.107.555m124.168,3.69a3.591,3.591,0,0,0-.059,1.249c.061.061.188-.4.282-1.026a3.646,3.646,0,0,0,.059-1.249c-.062-.061-.189.4-.282,1.026m-.613,2.624a14.765,14.765,0,0,1-1.968,3.983.56.56,0,0,0-.251.419c0,.41.85-.776,1.528-2.132.7-1.4,1.27-3.047,1.111-3.206-.059-.06-.248.362-.42.936M151.544,240.65c.5.668,114.065.668,114.57,0,.276-.365.273-.384-.019-.123-.273.244-12.075.307-57.266.307s-56.993-.063-57.266-.307c-.292-.261-.295-.242-.019.123" fill="#ada19f" fill-rule="evenodd"/><path d="M202.9,165.236c2.808.039,7.333.039,10.055,0s.425-.072-5.1-.072-7.758.032-4.95.072m-50.633,2.533-.579.511.606-.388c.549-.35,5.978-.387,56.514-.387h55.908l.568.533c.312.293.567.463.567.377a2.035,2.035,0,0,0-.537-.656l-.536-.5H152.844l-.579.51m-.582,34.806c0,18.817.029,26.515.064,17.106s.036-24.8,0-34.212-.064-1.711-.064,17.106m114.285,0c0,18.682.029,26.324.065,16.984s.036-24.626,0-33.967-.065-1.7-.065,16.983m-65.379-3.249c-.84,2.2-.58,7.173.375,7.173a2.526,2.526,0,0,0-.268-1.042,10.952,10.952,0,0,1,0-5.764,2.526,2.526,0,0,0,.268-1.042c-.065,0-.234.3-.375.675m2.722,9.982a7.663,7.663,0,0,0,2.684,1.6c.21-.005.015-.169-.432-.363a10.083,10.083,0,0,1-1.533-.866c-.4-.281-.719-.446-.719-.367m8.706,1.128c-.539.256-.837.468-.662.471a3.981,3.981,0,0,0,1.766-.858c0-.144.072-.169-1.1.387m-62.451.539c-.048.168-.03,5.493.039,11.833l.126,11.527.058-11.833c.053-10.907.025-12.392-.223-11.527M267.925,222.44c0,6.542.031,9.218.07,5.947s.039-8.623,0-11.894-.07-.6-.07,5.947m-59.77-11.108a3.518,3.518,0,0,0,1.1,0c.3-.059.055-.106-.552-.106s-.855.047-.551.106m57.449,25.55c0,1.037,1.322,1.015-57.236.949-54.77-.062-55.535-.069-56.1-.544l-.578-.482.559.6.558.6H264.855l.545-.545c.3-.3.468-.621.374-.715s-.17-.036-.17.129m-113.795,2.823c.547.335,6.7.37,57.02.324l56.407-.051-56.53-.124c-31.091-.068-56.75-.214-57.02-.325s-.215-.031.123.176" fill="#9cd7e6" fill-rule="evenodd"/></g><rect width="73" height="14" transform="translate(616 622)" fill="#cd9782"/><rect width="73" height="21" transform="translate(616 601)" fill="#b66e50"/><g transform="translate(690 580)" fill="#b66e50" stroke="#454546" stroke-width="1"><ellipse cx="9" cy="10" rx="9" ry="10" stroke="none"/><ellipse cx="9" cy="10" rx="8.5" ry="9.5" fill="none"/></g><g transform="translate(675 578)" fill="#b66e50" stroke="#454546" stroke-width="1"><ellipse cx="9" cy="10" rx="9" ry="10" stroke="none"/><ellipse cx="9" cy="10" rx="8.5" ry="9.5" fill="none"/></g><g transform="translate(659 577)" fill="#b66e50" stroke="#454546" stroke-width="1"><ellipse cx="9" cy="10" rx="9" ry="10" stroke="none"/><ellipse cx="9" cy="10" rx="8.5" ry="9.5" fill="none"/></g><g transform="translate(644 577)" fill="#b66e50" stroke="#454546" stroke-width="1"><ellipse cx="9" cy="10" rx="9" ry="10" stroke="none"/><ellipse cx="9" cy="10" rx="8.5" ry="9.5" fill="none"/></g><g transform="translate(630 577)" fill="#b66e50" stroke="#454546" stroke-width="1"><ellipse cx="9" cy="10" rx="9" ry="10" stroke="none"/><ellipse cx="9" cy="10" rx="8.5" ry="9.5" fill="none"/></g><g transform="translate(615 577)" fill="#b66e50" stroke="#454546" stroke-width="1"><ellipse cx="9" cy="10" rx="9" ry="10" stroke="none"/><ellipse cx="9" cy="10" rx="8.5" ry="9.5" fill="none"/></g><g transform="translate(602 579)" fill="#b66e50" stroke="#454546" stroke-width="1"><ellipse cx="9" cy="10" rx="9" ry="10" stroke="none"/><ellipse cx="9" cy="10" rx="8.5" ry="9.5" fill="none"/></g><g transform="translate(690 607)" fill="#b66e50" stroke="#454546" stroke-width="1"><ellipse cx="9" cy="10" rx="9" ry="10" stroke="none"/><ellipse cx="9" cy="10" rx="8.5" ry="9.5" fill="none"/></g><g transform="translate(675 607)" fill="#b66e50" stroke="#454546" stroke-width="1"><ellipse cx="9" cy="10" rx="9" ry="10" stroke="none"/><ellipse cx="9" cy="10" rx="8.5" ry="9.5" fill="none"/></g><g transform="translate(659 606)" fill="#b66e50" stroke="#454546" stroke-width="1"><ellipse cx="9" cy="10" rx="9" ry="10" stroke="none"/><ellipse cx="9" cy="10" rx="8.5" ry="9.5" fill="none"/></g><g transform="translate(644 606)" fill="#b66e50" stroke="#454546" stroke-width="1"><ellipse cx="9" cy="10" rx="9" ry="10" stroke="none"/><ellipse cx="9" cy="10" rx="8.5" ry="9.5" fill="none"/></g><g transform="translate(630 606)" fill="#b66e50" stroke="#454546" stroke-width="1"><ellipse cx="9" cy="10" rx="9" ry="10" stroke="none"/><ellipse cx="9" cy="10" rx="8.5" ry="9.5" fill="none"/></g><g transform="translate(615 606)" fill="#b66e50" stroke="#454546" stroke-width="1"><ellipse cx="9" cy="10" rx="9" ry="10" stroke="none"/><ellipse cx="9" cy="10" rx="8.5" ry="9.5" fill="none"/></g><g transform="translate(602 608)" fill="#b66e50" stroke="#454546" stroke-width="1"><ellipse cx="9" cy="10" rx="9" ry="10" stroke="none"/><ellipse cx="9" cy="10" rx="8.5" ry="9.5" fill="none"/></g><g transform="matrix(-0.017, 1, -1, -0.017, 619.156, 593.176)" fill="#b66e50" stroke="#454546" stroke-width="1"><ellipse cx="9" cy="10" rx="9" ry="10" stroke="none"/><ellipse cx="9" cy="10" rx="8.5" ry="9.5" fill="none"/></g><g transform="translate(710.515 593.489) rotate(87)" fill="#b66e50" stroke="#454546" stroke-width="1"><ellipse cx="9" cy="10" rx="9" ry="10" stroke="none"/><ellipse cx="9" cy="10" rx="8.5" ry="9.5" fill="none"/></g><g transform="translate(608 586)" fill="#b66e50" stroke="#b66e50" stroke-width="1"><rect width="94" height="33" stroke="none"/><rect x="0.5" y="0.5" width="93" height="32" fill="none"/></g></g><circle cx="15" cy="15" r="15" transform="translate(105 98)" fill="#f6c006"/><circle cx="22.5" cy="22.5" r="22.5" transform="translate(369 185)" fill="#f67606"/><g transform="translate(372 115)" fill="none" stroke="#f67606" stroke-width="3"><circle cx="7.5" cy="7.5" r="7.5" stroke="none"/><circle cx="7.5" cy="7.5" r="6" fill="none"/></g><g transform="translate(219 220)" fill="#fff" stroke="#fff" stroke-width="1"><rect width="20" height="19" stroke="none"/><rect x="0.5" y="0.5" width="19" height="18" fill="none"/></g><g transform="translate(80 2)"><g transform="translate(136 223)" fill="#37c8ed"><path d="M 8.190984725952148 8.5 L 0.8090149760246277 8.5 L 4.5 1.118029952049255 L 8.190984725952148 8.5 Z" stroke="none"/><path d="M 4.5 2.236070156097412 L 1.618034839630127 8 L 7.381965160369873 8 L 4.5 2.236070156097412 M 4.5 0 L 9 9 L 0 9 L 4.5 0 Z" stroke="none" fill="#37c8ed"/></g><g transform="translate(154 232) rotate(180)" fill="#707070"><path d="M 8.190984725952148 8.5 L 0.8090149760246277 8.5 L 4.5 1.118029952049255 L 8.190984725952148 8.5 Z" stroke="none"/><path d="M 4.5 2.236070156097412 L 1.618034839630127 8 L 7.381965160369873 8 L 4.5 2.236070156097412 M 4.5 0 L 9 9 L 0 9 L 4.5 0 Z" stroke="none" fill="#707070"/></g><g transform="translate(149.5 229.514)" fill="#fff"><path d="M 1.637631177902222 1.985761761665344 L 0.8023712635040283 1.985761761665344 L 1.220001220703125 1.13483726978302 L 1.637631177902222 1.985761761665344 Z" stroke="none"/><path d="M 1.220001220703125 1.668930053710938e-06 L 2.440001249313354 2.485761880874634 L 1.192092895507813e-06 2.485761880874634 L 1.220001220703125 1.668930053710938e-06 Z" stroke="none" fill="#ff5d00"/></g><g transform="translate(155 223)" fill="#00ffb4" stroke="#00ffb4" stroke-width="1"><circle cx="3.75" cy="3.75" r="3.75" stroke="none"/><circle cx="3.75" cy="3.75" r="3.25" fill="none"/></g><g transform="translate(158 231)" fill="#fff" stroke="#707070" stroke-width="1"><circle cx="0.75" cy="0.75" r="0.75" stroke="none"/><circle cx="0.75" cy="0.75" r="0.25" fill="none"/></g></g><path d="M0,0H0A2.1,2.1,0,0,1,2.1,2.1V33.9A2.1,2.1,0,0,1,0,36H0a0,0,0,0,1,0,0V0A0,0,0,0,1,0,0Z" transform="translate(287 230)" fill="#37c8ed"/><path d="M2,0H2A0,0,0,0,1,2,0V36a0,0,0,0,1,0,0H2a2,2,0,0,1-2-2V2A2,2,0,0,1,2,0Z" transform="translate(171 230)" fill="#37c8ed"/><g transform="translate(172 261)" fill="#fff" stroke="#37c8ed" stroke-width="2"><path d="M0,0H116a0,0,0,0,1,0,0V2a5,5,0,0,1-5,5H5A5,5,0,0,1,0,2V0A0,0,0,0,1,0,0Z" stroke="none"/><path d="M2,1H114a1,1,0,0,1,1,1V2a4,4,0,0,1-4,4H5A4,4,0,0,1,1,2V2A1,1,0,0,1,2,1Z" fill="none"/></g><path d="M0,0H113.5a0,0,0,0,1,0,0V4a3,3,0,0,1-3,3H3A3,3,0,0,1,0,4V0A0,0,0,0,1,0,0Z" transform="translate(173 258)" fill="#fff"/></g></svg>