<svg xmlns="http://www.w3.org/2000/svg" width="26.5" height="9.5" viewBox="0 0 26.5 9.5"><g transform="translate(-136 -223)"><g transform="translate(136 223)" fill="#37c8ed"><path d="M 8.190984725952148 8.5 L 0.8090149760246277 8.5 L 4.5 1.118029952049255 L 8.190984725952148 8.5 Z" stroke="none"/><path d="M 4.5 2.236070156097412 L 1.618034839630127 8 L 7.381965160369873 8 L 4.5 2.236070156097412 M 4.5 0 L 9 9 L 0 9 L 4.5 0 Z" stroke="none" fill="#37c8ed"/></g><g transform="translate(154 232) rotate(180)" fill="#707070"><path d="M 8.190984725952148 8.5 L 0.8090149760246277 8.5 L 4.5 1.118029952049255 L 8.190984725952148 8.5 Z" stroke="none"/><path d="M 4.5 2.236070156097412 L 1.618034839630127 8 L 7.381965160369873 8 L 4.5 2.236070156097412 M 4.5 0 L 9 9 L 0 9 L 4.5 0 Z" stroke="none" fill="#707070"/></g><g transform="translate(149.5 229.514)" fill="#fff"><path d="M 1.637631177902222 1.985761761665344 L 0.8023712635040283 1.985761761665344 L 1.220001220703125 1.13483726978302 L 1.637631177902222 1.985761761665344 Z" stroke="none"/><path d="M 1.220001220703125 1.668930053710938e-06 L 2.440001249313354 2.485761880874634 L 1.192092895507813e-06 2.485761880874634 L 1.220001220703125 1.668930053710938e-06 Z" stroke="none" fill="#ff5d00"/></g><g transform="translate(155 223)" fill="#00ffb4" stroke="#00ffb4" stroke-width="1"><circle cx="3.75" cy="3.75" r="3.75" stroke="none"/><circle cx="3.75" cy="3.75" r="3.25" fill="none"/></g><g transform="translate(158 231)" fill="#fff" stroke="#707070" stroke-width="1"><circle cx="0.75" cy="0.75" r="0.75" stroke="none"/><circle cx="0.75" cy="0.75" r="0.25" fill="none"/></g></g></svg>